<svg width="81" height="87" viewBox="0 0 81 87" fill="none" xmlns="http://www.w3.org/2000/svg">
<path d="M32.3173 0.334135C32.7267 0.537095 33.0861 0.828237 33.3696 1.18664C33.6531 1.54503 33.8537 1.96179 33.957 2.40695C34.0684 2.89576 37.125 15.9761 37.125 24.75C37.125 30.6281 34.3901 35.869 30.1331 39.2659C28.5862 40.5034 27.8438 41.8523 27.8438 42.9784V45.9855C27.8438 46.1299 27.852 46.266 27.8685 46.3939C28.0789 47.9284 28.8399 53.6271 29.5515 59.5361C30.2507 65.3338 30.9375 71.6575 30.9375 74.25C30.9375 77.5321 29.6337 80.6797 27.3129 83.0005C24.9922 85.3212 21.8446 86.625 18.5625 86.625C15.2804 86.625 12.1328 85.3212 9.81205 83.0005C7.49129 80.6797 6.1875 77.5321 6.1875 74.25C6.1875 71.6513 6.87431 65.34 7.5735 59.5361C8.28506 53.6271 9.04613 47.9284 9.2565 46.3939L9.28125 45.9855V42.9784C9.28125 41.8523 8.53875 40.5034 6.99188 39.2659C4.81067 37.5271 3.04938 35.3192 1.8389 32.8061C0.628415 30.293 -0.000122055 27.5394 1.77782e-08 24.75C1.77782e-08 16.0071 3.03188 2.99476 3.168 2.41313C3.32885 1.72533 3.718 1.11232 4.27198 0.674084C4.82596 0.235845 5.51208 -0.00176373 6.21844 9.85734e-06C7.95094 9.85734e-06 9.3555 1.40457 9.3555 3.13707V21.6872C9.33111 22.105 9.39262 22.5234 9.53623 22.9166C9.67984 23.3097 9.9025 23.6693 10.1905 23.973C10.4785 24.2767 10.8256 24.5182 11.2106 24.6826C11.5955 24.8469 12.0101 24.9306 12.4286 24.9285C12.8472 24.9264 13.2608 24.8385 13.6441 24.6703C14.0273 24.502 14.3721 24.257 14.6569 23.9504C14.9418 23.6438 15.1609 23.282 15.3005 22.8874C15.4401 22.4928 15.4974 22.0738 15.4688 21.6563V3.09376C15.4687 2.27325 15.7947 1.48634 16.3749 0.906148C16.9551 0.325957 17.742 9.85734e-06 18.5625 9.85734e-06C19.383 9.85734e-06 20.1699 0.325957 20.7501 0.906148C21.3303 1.48634 21.6562 2.27325 21.6562 3.09376V21.8171C21.6735 22.6294 22.0127 23.4016 22.5993 23.9638C23.1858 24.526 23.9717 24.8322 24.784 24.815C25.5963 24.7977 26.3685 24.4585 26.9307 23.872C27.4929 23.2854 27.7991 22.4995 27.7819 21.6872V3.1247C27.7819 1.39838 29.1802 9.85734e-06 30.9127 9.85734e-06C31.0489 9.85734e-06 31.6553 9.98075e-06 32.3173 0.334135ZM46.4062 27.8438C46.4062 20.4591 49.3398 13.377 54.5615 8.15526C59.7832 2.93354 66.8654 9.85734e-06 74.25 9.85734e-06C75.0705 9.85734e-06 75.8574 0.325957 76.4376 0.906148C77.0178 1.48634 77.3438 2.27325 77.3438 3.09376V40.0517L77.4613 41.1469C77.9535 45.7648 78.4258 50.3849 78.8783 55.0069C79.6393 62.7784 80.4375 71.4904 80.4375 74.25C80.4375 77.5321 79.1337 80.6797 76.8129 83.0005C74.4922 85.3212 71.3446 86.625 68.0625 86.625C64.7804 86.625 61.6328 85.3212 59.3121 83.0005C56.9913 80.6797 55.6875 77.5321 55.6875 74.25C55.6875 71.4904 56.4857 62.7784 57.2467 55.0069C57.6366 51.0655 58.0264 47.2911 58.3172 44.4943L58.4409 43.3125H52.5938C50.9527 43.3125 49.3789 42.6606 48.2185 41.5002C47.0581 40.3399 46.4062 38.766 46.4062 37.125V27.8438Z" fill="#20E500"/>
</svg>
