<svg width="115" height="92" viewBox="0 0 115 92" fill="none" xmlns="http://www.w3.org/2000/svg">
<path d="M38.0588 0C39.4604 0 40.6284 1.02422 41.0596 2.37187C43.2698 9.32578 49.7924 14.375 57.501 14.375C65.2096 14.375 71.7323 9.32578 73.9424 2.37187C74.3737 1.02422 75.5416 0 76.9432 0H79.2073C83.2502 0 87.1494 1.41953 90.258 4.00703L112.935 22.8922C114.121 23.8805 114.857 25.318 114.983 26.8633C115.109 28.4086 114.606 29.9359 113.581 31.1039L103.519 42.6039C101.471 44.9578 97.9127 45.2273 95.5049 43.2328L86.251 35.5242V80.5C86.251 86.843 81.094 92 74.751 92H40.251C33.908 92 28.751 86.843 28.751 80.5V35.5242L19.4971 43.2328C17.1073 45.2273 13.5494 44.9578 11.483 42.6039L1.42054 31.1039C0.39632 29.9359 -0.106805 28.4086 0.0189764 26.8633C0.144758 25.318 0.881476 23.8805 2.06741 22.8922L24.744 4.00703C27.8526 1.41953 31.7518 0 35.7948 0H38.0588Z" fill="#20E500"/>
</svg>
