<svg width="53" height="96" viewBox="0 0 53 96" fill="none" xmlns="http://www.w3.org/2000/svg">
<path d="M13.3186 95.8333C10.8429 95.8333 8.68663 95.014 6.84983 93.3752C5.01302 91.7365 3.97482 89.6808 3.73524 87.2083L0.0217015 45.7604C-0.0581596 44.9618 0.082395 44.2239 0.443367 43.5467C0.804339 42.8694 1.3426 42.3296 2.05816 41.9271C2.69705 41.5278 3.25607 41.0486 3.73524 40.4896C4.21441 39.9306 4.45399 39.2517 4.45399 38.4531C4.45399 37.7344 4.29427 37.0747 3.97483 36.4742C3.65538 35.8736 3.17621 35.3753 2.53732 34.9792C1.73871 34.5799 1.13976 33.9617 0.74045 33.1248C0.341144 32.2878 0.261284 31.4285 0.500868 30.5469L3.61545 17.9688C3.85503 16.8507 4.41406 15.9722 5.29253 15.3333C6.171 14.6944 7.16927 14.375 8.28732 14.375H21.3446V9.58333H18.9488C17.5911 9.58333 16.4539 9.12493 15.5371 8.20813C14.6203 7.29132 14.1603 6.1525 14.1571 4.79167C14.1539 3.43083 14.6139 2.29361 15.5371 1.38C16.4603 0.466389 17.5975 0.00638889 18.9488 0H33.3238C34.6814 0 35.8202 0.460001 36.7402 1.38C37.6602 2.3 38.1186 3.43722 38.1154 4.79167C38.1123 6.14611 37.6523 7.28493 36.7354 8.20813C35.8186 9.13132 34.6814 9.58972 33.3238 9.58333H30.9279V14.375H43.9852C45.1033 14.375 46.0824 14.6944 46.9225 15.3333C47.7627 15.9722 48.3009 16.8507 48.5373 17.9688L51.7717 30.5469C52.0113 31.4253 51.9314 32.2847 51.5321 33.1248C51.1328 33.9649 50.5338 34.5831 49.7352 34.9792C49.0963 35.2986 48.598 35.7378 48.2402 36.2969C47.8825 36.8559 47.702 37.4948 47.6988 38.2135C47.6988 39.092 47.9192 39.8315 48.36 40.4321C48.8009 41.0326 49.3791 41.531 50.0946 41.9271C50.8102 42.3232 51.3692 42.8631 51.7717 43.5467C52.1742 44.2303 52.3339 44.9682 52.2509 45.7604L48.5373 87.0885C48.2977 89.5642 47.2595 91.6406 45.4227 93.3177C43.5859 94.9948 41.4297 95.8333 38.954 95.8333H13.3186Z" fill="#20E500"/>
</svg>
