<svg width="85" height="85" viewBox="0 0 85 85" fill="none" xmlns="http://www.w3.org/2000/svg">
<path d="M30.345 78.9225L36.4225 85L42.5 78.9225L27.3275 63.75L63.75 27.3275L78.9225 42.5L85 36.4225L78.9225 30.345L85 24.2675L75.905 15.1725L81.9825 9.095L75.905 3.0175L69.8275 9.095L60.7325 -1.06077e-06L54.655 6.0775L48.5775 -1.59208e-06L42.5 6.0775L57.6725 21.25L21.25 57.6725L6.0775 42.5L-2.12339e-06 48.5775L6.0775 54.655L-2.6547e-06 60.7325L9.09499 69.8275L3.01749 75.905L9.09499 81.9825L15.1725 75.905L24.2675 85L30.345 78.9225Z" fill="#20E500"/>
</svg>
